<?xml version="1.0" encoding="utf-8"?>
<!-- Generator: Adobe Illustrator 23.1.0, SVG Export Plug-In . SVG Version: 6.00 Build 0)  -->
<svg version="1.1" id="Layer_1" xmlns="http://www.w3.org/2000/svg" xmlns:xlink="http://www.w3.org/1999/xlink" x="0px" y="0px"
	 viewBox="0 0 256 256" style="enable-background:new 0 0 256 256;" xml:space="preserve">
<style type="text/css">
	.st0{fill:#21262A;}
</style>
<path id="Path_2" class="st0" d="M74.9,141.1c-6.3-7.3-6.3-18.1,0-25.4l76-88.9c7-8.2,19.4-9.2,27.6-2.2c4.3,3.7,6.8,9.1,6.8,14.8
	c0,0,0,0.1,0,0.1L114,126.8c0,0,0,0.1,0,0.1l71.3,90.3c0,0,0,0,0,0.1c0,11-9.2,19.9-20.3,19.5c-5.6-0.2-10.8-3-14.5-7.2L74.9,141.1z
	"/>
</svg>
